<!-- SVG generated by bCNC: https://github.com/vlachoudis/bCNC -->
<svg viewBox="-10.661458597916667 -24.933718597916666 31.86788594583333 35.35374490416667">
	<!-- (Block-name: Header) -->
	<!-- (Block-expand: 0) -->
	<!-- (Block-enable: 1) -->
	<path d="
	A 0.0 0.0 0 0 0 -0.6614583333333334 -1.9843617708333334
	A 0.0 0.0 0 0 0 -0.6614583333333334 -1.9843617708333334
	A 0.0 0.0 0 0 0 -0.6614583333333334 -1.9843617708333334
	A 0.0 0.0 0 0 0 -0.6614583333333334 -1.9843617708333334
	M -0.6614583333333334 -1.9843617708333334
	Z
	" stroke="black" stroke-width="2" fill="none" />
	<!-- (Block-name: rect89) -->
	<!-- (Block-expand: 0) -->
	<!-- (Block-enable: 0) -->
	<path d="
	M 0.0 -14.513692291666667
	L 10.544968749999999 -14.513692291666667
	L 10.544968749999999 -0.0
	L 0.0 -0.0
	L 0.0 -14.513692291666667
	Z
	" stroke="black" stroke-width="2" fill="none" />
	<!-- (Block-name: rect89 [out,conventional,ccw,cut:-1.7]) -->
	<!-- (Block-expand: 0) -->
	<!-- (Block-enable: 1) -->
	<path d="
	M 0.0 -14.513692291666667
	M 0.0 -14.933718333333333
	L 0.0 -14.933718333333333
	A 0.4200260416666666 0.4200260416666666 0 0 0 -0.4200260416666666 -14.513692291666667
	L -0.4200260416666666 -2.9809492916666667
	M -0.4200260416666666 -2.9809492916666667
	L -0.4200260416666666 -0.98777425
	L -0.4200260416666666 -0.98777425
	L -0.4200260416666666 -0.0
	A 0.4200260416666666 0.4200260416666666 0 1 0 0.0 0.4200260416666666
	L 10.544968749999999 0.4200260416666666
	A 0.4200260416666666 0.4200260416666666 0 0 0 10.964994791666667 -0.0
	L 10.964994791666667 -11.532743000000002
	M 10.964994791666667 -11.532743000000002
	L 10.964994791666667 -13.525918041666667
	L 10.964994791666667 -13.525918041666667
	L 10.964994791666667 -14.513692291666667
	A 0.4200260416666666 0.4200260416666666 0 0 0 10.544968749999999 -14.933718333333333
	L 0.0 -14.933718333333333
	M 0.0 -14.933718333333333
	L 0.0 -14.933718333333333
	A 0.4200260416666666 0.4200260416666666 0 0 0 -0.4200260416666666 -14.513692291666667
	L -0.4200260416666666 -2.9809492916666667
	M -0.4200260416666666 -2.9809492916666667
	L -0.4200260416666666 -0.98777425
	L -0.4200260416666666 -0.98777425
	L -0.4200260416666666 -0.0
	A 0.4200260416666666 0.4200260416666666 0 1 0 0.0 0.4200260416666666
	L 10.544968749999999 0.4200260416666666
	A 0.4200260416666666 0.4200260416666666 0 0 0 10.964994791666667 -0.0
	L 10.964994791666667 -11.532743000000002
	M 10.964994791666667 -11.532743000000002
	L 10.964994791666667 -13.525918041666667
	L 10.964994791666667 -13.525918041666667
	L 10.964994791666667 -14.513692291666667
	A 0.4200260416666666 0.4200260416666666 0 0 0 10.544968749999999 -14.933718333333333
	L 0.0 -14.933718333333333
	M 0.0 -14.933718333333333
	L 0.0 -14.933718333333333
	A 0.4200260416666666 0.4200260416666666 0 0 0 -0.4200260416666666 -14.513692291666667
	L -0.4200260416666666 -2.9809492916666667
	M -0.4200260416666666 -2.9809492916666667
	L -0.4200260416666666 -0.98777425
	L -0.4200260416666666 -0.98777425
	L -0.4200260416666666 -0.0
	A 0.4200260416666666 0.4200260416666666 0 1 0 0.0 0.4200260416666666
	L 10.544968749999999 0.4200260416666666
	A 0.4200260416666666 0.4200260416666666 0 0 0 10.964994791666667 -0.0
	L 10.964994791666667 -11.532743000000002
	M 10.964994791666667 -11.532743000000002
	L 10.964994791666667 -13.525918041666667
	L 10.964994791666667 -13.525918041666667
	L 10.964994791666667 -14.513692291666667
	A 0.4200260416666666 0.4200260416666666 0 0 0 10.544968749999999 -14.933718333333333
	L 0.0 -14.933718333333333
	M 0.0 -14.933718333333333
	Z
	" stroke="black" stroke-width="2" fill="none" />
	<!-- (Block-name: Footer) -->
	<!-- (Block-expand: 0) -->
	<!-- (Block-enable: 1) -->
	<path d="
	M 0.0 -14.933718333333333
	M 0.0 -14.933718333333333
	" stroke="black" stroke-width="2" fill="none" />
	<!-- (Block-name: rect89 [tab,island,minz:-0.500000]) -->
	<!-- (Block-expand: 0) -->
	<!-- (Block-enable: 0) -->
	<!-- (Block-color: orange) -->
	<path d="
	M 9.883510416666667 -12.529330520833334
	M 9.883510416666667 -12.529330520833334
	A 0.6614583333333334 0.6614583333333334 0 0 0 11.206427083333333 -12.529330520833334
	A 0.6614583333333334 0.6614583333333334 0 0 0 9.883510416666667 -12.529330520833334
	M -0.6614583333333334 -1.9843617708333334
	M -0.6614583333333334 -1.9843617708333334
	A 0.6614583333333334 0.6614583333333334 0 0 0 0.6614583333333334 -1.9843617708333334
	A 0.6614583333333334 0.6614583333333334 0 0 0 -0.6614583333333334 -1.9843617708333334
	" stroke="orange" stroke-width="2" fill="none" />
</svg>
