<?xml version="1.0" standalone="no"?>
<!DOCTYPE svg PUBLIC "-//W3C//DTD SVG 1.1//EN"
"http://www.w3.org/Graphics/SVG/1.1/DTD/svg11.dtd">
<svg width="154.583" height="211.276" viewBox="0 0 3220.47 4401.57" version="1.1"
xmlns="http://www.w3.org/2000/svg"
xmlns:xlink="http://www.w3.org/1999/xlink">
<circle cx="35.4331" cy="4366.14" r="31.4961" style=""/>
<circle cx="232.283" cy="4169.29" r="31.4961" style=""/>
<circle cx="873.228" cy="3598.9" r="31.4961" style=""/>
<circle cx="873.228" cy="3798.9" r="31.4961" style=""/>
<circle cx="873.228" cy="3998.9" r="31.4961" style=""/>
<circle cx="1073.23" cy="3798.9" r="31.4961" style=""/>
<circle cx="1073.62" cy="3798.5" r="31.4961" style=""/>
<circle cx="1073.23" cy="3598.9" r="31.4961" style=""/>
<circle cx="1073.62" cy="3598.5" r="31.4961" style=""/>
<circle cx="1073.23" cy="3398.9" r="31.4961" style=""/>
<circle cx="1073.62" cy="3398.5" r="31.4961" style=""/>
<circle cx="1073.23" cy="3198.9" r="31.4961" style=""/>
<circle cx="1073.62" cy="3198.5" r="31.4961" style=""/>
<circle cx="1073.23" cy="2998.9" r="31.4961" style=""/>
<circle cx="1073.62" cy="2998.5" r="31.4961" style=""/>
<circle cx="1073.23" cy="2798.9" r="31.4961" style=""/>
<circle cx="1073.62" cy="2798.5" r="31.4961" style=""/>
<circle cx="1073.23" cy="2598.9" r="31.4961" style=""/>
<circle cx="1073.62" cy="2598.5" r="31.4961" style=""/>
<circle cx="1073.23" cy="2398.9" r="31.4961" style=""/>
<circle cx="1073.62" cy="2398.5" r="31.4961" style=""/>
<circle cx="1073.23" cy="2198.9" r="31.4961" style=""/>
<circle cx="1073.62" cy="2198.5" r="31.4961" style=""/>
<circle cx="1073.23" cy="1998.9" r="31.4961" style=""/>
<circle cx="1073.62" cy="1998.5" r="31.4961" style=""/>
<circle cx="1073.23" cy="1798.9" r="31.4961" style=""/>
<circle cx="1073.62" cy="1798.5" r="31.4961" style=""/>
<circle cx="1073.23" cy="1598.9" r="31.4961" style=""/>
<circle cx="1073.62" cy="1598.5" r="31.4961" style=""/>
<circle cx="1073.23" cy="1398.9" r="31.4961" style=""/>
<circle cx="1073.62" cy="1398.5" r="31.4961" style=""/>
<circle cx="1073.23" cy="1198.9" r="31.4961" style=""/>
<circle cx="1073.62" cy="1198.5" r="31.4961" style=""/>
<circle cx="1073.62" cy="998.504" r="31.4961" style=""/>
<circle cx="1073.23" cy="998.898" r="31.4961" style=""/>
<circle cx="873.228" cy="1198.9" r="31.4961" style=""/>
<circle cx="873.228" cy="1398.9" r="31.4961" style=""/>
<circle cx="873.228" cy="1598.9" r="31.4961" style=""/>
<circle cx="873.228" cy="1798.9" r="31.4961" style=""/>
<circle cx="873.228" cy="1998.9" r="31.4961" style=""/>
<circle cx="873.228" cy="2198.9" r="31.4961" style=""/>
<circle cx="873.228" cy="2398.9" r="31.4961" style=""/>
<circle cx="873.228" cy="2598.9" r="31.4961" style=""/>
<circle cx="873.228" cy="2798.9" r="31.4961" style=""/>
<circle cx="873.228" cy="2998.9" r="31.4961" style=""/>
<circle cx="873.228" cy="3198.9" r="31.4961" style=""/>
<circle cx="873.228" cy="3398.9" r="31.4961" style=""/>
<circle cx="435.433" cy="2966.14" r="31.4961" style=""/>
<circle cx="373.622" cy="2366.14" r="31.4961" style=""/>
<circle cx="373.622" cy="2208.66" r="31.4961" style=""/>
<circle cx="373.622" cy="2051.18" r="31.4961" style=""/>
<circle cx="373.622" cy="1893.7" r="31.4961" style=""/>
<circle cx="375.118" cy="1652.28" r="31.4961" style=""/>
<circle cx="365.906" cy="1366.14" r="31.4961" style=""/>
<circle cx="365.906" cy="1208.66" r="31.4961" style=""/>
<circle cx="365.906" cy="1051.18" r="31.4961" style=""/>
<circle cx="365.906" cy="893.701" r="31.4961" style=""/>
<circle cx="247.874" cy="573.622" r="31.4961" style=""/>
<circle cx="35.4331" cy="35.4331" r="31.4961" style=""/>
<circle cx="232.283" cy="232.283" r="31.4961" style=""/>
<circle cx="873.228" cy="998.898" r="31.4961" style=""/>
<circle cx="873.228" cy="798.898" r="31.4961" style=""/>
<circle cx="873.228" cy="598.898" r="31.4961" style=""/>
<circle cx="873.228" cy="398.898" r="31.4961" style=""/>
<circle cx="873.228" cy="198.898" r="31.4961" style=""/>
<circle cx="1073.62" cy="198.504" r="31.4961" style=""/>
<circle cx="1073.23" cy="198.898" r="31.4961" style=""/>
<circle cx="1073.62" cy="398.504" r="31.4961" style=""/>
<circle cx="1073.23" cy="398.898" r="31.4961" style=""/>
<circle cx="1073.62" cy="598.504" r="31.4961" style=""/>
<circle cx="1073.23" cy="598.898" r="31.4961" style=""/>
<circle cx="1073.23" cy="798.898" r="31.4961" style=""/>
<circle cx="1073.62" cy="798.504" r="31.4961" style=""/>
<circle cx="1582.68" cy="447.323" r="31.4961" style=""/>
<circle cx="1559.06" cy="208.74" r="31.4961" style=""/>
<circle cx="1964.57" cy="447.323" r="31.4961" style=""/>
<circle cx="1988.19" cy="208.74" r="31.4961" style=""/>
<circle cx="2473.62" cy="398.504" r="31.4961" style=""/>
<circle cx="2475.04" cy="398.425" r="31.4961" style=""/>
<circle cx="2473.62" cy="198.504" r="31.4961" style=""/>
<circle cx="2475.04" cy="198.425" r="31.4961" style=""/>
<circle cx="2675.04" cy="198.425" r="31.4961" style=""/>
<circle cx="2988.19" cy="232.283" r="31.4961" style=""/>
<circle cx="3185.04" cy="35.4331" r="31.4961" style=""/>
<circle cx="2964.96" cy="594.094" r="31.4961" style=""/>
<circle cx="2675.04" cy="398.425" r="31.4961" style=""/>
<circle cx="2675.04" cy="598.425" r="31.4961" style=""/>
<circle cx="2675.04" cy="798.425" r="31.4961" style=""/>
<circle cx="2675.04" cy="998.425" r="31.4961" style=""/>
<circle cx="2475.04" cy="798.425" r="31.4961" style=""/>
<circle cx="2475.04" cy="598.425" r="31.4961" style=""/>
<circle cx="2473.62" cy="598.504" r="31.4961" style=""/>
<circle cx="2149.21" cy="922.913" r="31.4961" style=""/>
<circle cx="2473.62" cy="798.504" r="31.4961" style=""/>
<circle cx="2475.04" cy="998.425" r="31.4961" style=""/>
<circle cx="2473.62" cy="998.504" r="31.4961" style=""/>
<circle cx="2475.04" cy="1198.43" r="31.4961" style=""/>
<circle cx="2473.62" cy="1198.5" r="31.4961" style=""/>
<circle cx="2475.04" cy="1398.43" r="31.4961" style=""/>
<circle cx="2473.62" cy="1398.5" r="31.4961" style=""/>
<circle cx="2475.04" cy="1598.43" r="31.4961" style=""/>
<circle cx="2473.62" cy="1598.5" r="31.4961" style=""/>
<circle cx="2473.62" cy="1798.5" r="31.4961" style=""/>
<circle cx="2475.04" cy="1798.43" r="31.4961" style=""/>
<circle cx="2675.04" cy="1398.43" r="31.4961" style=""/>
<circle cx="2675.04" cy="1198.43" r="31.4961" style=""/>
<circle cx="2951.02" cy="1602.99" r="31.4961" style=""/>
<circle cx="2675.04" cy="1598.43" r="31.4961" style=""/>
<circle cx="2675.04" cy="1798.43" r="31.4961" style=""/>
<circle cx="2675.04" cy="1998.43" r="31.4961" style=""/>
<circle cx="2475.04" cy="1998.43" r="31.4961" style=""/>
<circle cx="2473.62" cy="1998.5" r="31.4961" style=""/>
<circle cx="2473.62" cy="2198.5" r="31.4961" style=""/>
<circle cx="2475.04" cy="2198.43" r="31.4961" style=""/>
<circle cx="2675.04" cy="2198.43" r="31.4961" style=""/>
<circle cx="2675.04" cy="2398.43" r="31.4961" style=""/>
<circle cx="2475.04" cy="2398.43" r="31.4961" style=""/>
<circle cx="2473.62" cy="2398.5" r="31.4961" style=""/>
<circle cx="2473.62" cy="2598.5" r="31.4961" style=""/>
<circle cx="2475.04" cy="2598.43" r="31.4961" style=""/>
<circle cx="2675.04" cy="2598.43" r="31.4961" style=""/>
<circle cx="2675.04" cy="2798.43" r="31.4961" style=""/>
<circle cx="2475.04" cy="2798.43" r="31.4961" style=""/>
<circle cx="2473.62" cy="2798.5" r="31.4961" style=""/>
<circle cx="2473.62" cy="2998.5" r="31.4961" style=""/>
<circle cx="2475.04" cy="2998.43" r="31.4961" style=""/>
<circle cx="2675.04" cy="2998.43" r="31.4961" style=""/>
<circle cx="2675.04" cy="3198.43" r="31.4961" style=""/>
<circle cx="2475.04" cy="3398.43" r="31.4961" style=""/>
<circle cx="2473.62" cy="3398.5" r="31.4961" style=""/>
<circle cx="2475.04" cy="3598.43" r="31.4961" style=""/>
<circle cx="2473.62" cy="3598.5" r="31.4961" style=""/>
<circle cx="2146.14" cy="3566.61" r="31.4961" style=""/>
<circle cx="1914.88" cy="3562.28" r="31.4961" style=""/>
<circle cx="2473.62" cy="3198.5" r="31.4961" style=""/>
<circle cx="2475.04" cy="3198.43" r="31.4961" style=""/>
<circle cx="2675.04" cy="3398.43" r="31.4961" style=""/>
<circle cx="2675.04" cy="3598.43" r="31.4961" style=""/>
<circle cx="2949.21" cy="3592.76" r="31.4961" style=""/>
<circle cx="2675.04" cy="3798.43" r="31.4961" style=""/>
<circle cx="2988.19" cy="4169.29" r="31.4961" style=""/>
<circle cx="2675.04" cy="3998.43" r="31.4961" style=""/>
<circle cx="2475.04" cy="3998.43" r="31.4961" style=""/>
<circle cx="2473.62" cy="3998.5" r="31.4961" style=""/>
<circle cx="2475.04" cy="3798.43" r="31.4961" style=""/>
<circle cx="2473.62" cy="3798.5" r="31.4961" style=""/>
<circle cx="2215.35" cy="3975.75" r="31.4961" style=""/>
<circle cx="1973.62" cy="3980.39" r="31.4961" style=""/>
<circle cx="1773.62" cy="3980.39" r="31.4961" style=""/>
<circle cx="1573.62" cy="3980.39" r="31.4961" style=""/>
<circle cx="1658.03" cy="3656.77" r="31.4961" style=""/>
<circle cx="1073.62" cy="3998.5" r="31.4961" style=""/>
<circle cx="1073.23" cy="3998.9" r="31.4961" style=""/>
</svg>
