M48
; DRILL file {KiCad 6.0.2+dfsg-1} date sob, 22 kwi 2023, 17:36:00
; FORMAT={-:-/ absolute / metric / decimal}
; #@! TF.CreationDate,2023-04-22T17:36:00+02:00
; #@! TF.GenerationSoftware,Kicad,Pcbnew,6.0.2+dfsg-1
; #@! TF.FileFunction,MixedPlating,1,2
FMAT,2
METRIC
; #@! TA.AperFunction,Plated,PTH,ComponentDrill
T1C0.800
; #@! TA.AperFunction,Plated,PTH,ViaDrill
T2C0.900
; #@! TA.AperFunction,Plated,PTH,ComponentDrill
T3C1.000
; #@! TA.AperFunction,Plated,PTH,ComponentDrill
T4C1.020
; #@! TA.AperFunction,NonPlated,NPTH,ComponentDrill
T5C1.500
; #@! TA.AperFunction,NonPlated,NPTH,ComponentDrill
T6C1.800
; #@! TA.AperFunction,NonPlated,NPTH,ComponentDrill
T7C2.200
%
G90
G05
T1
X4.197Y44.1
X4.197Y42.1
X4.197Y40.1
X4.197Y38.1
X4.295Y31.4
X4.295Y29.4
X4.295Y27.4
X4.295Y25.4
T2
X0.0Y55.0
X0.0Y0.0
X2.698Y48.165
X4.314Y34.466
X5.08Y17.78
X20.607Y9.009
X23.869Y10.209
X26.806Y10.154
X26.845Y43.729
X27.685Y4.958
X37.005Y9.822
X37.028Y35.092
X37.205Y47.905
X40.0Y55.0
T3
X10.64Y52.924
X10.64Y50.384
X10.64Y47.844
X10.64Y45.304
X10.64Y42.764
X10.64Y40.224
X10.64Y37.684
X10.64Y35.144
X10.64Y32.604
X10.64Y30.064
X10.64Y27.524
X10.64Y24.984
X10.64Y22.444
X10.64Y19.904
X10.64Y17.364
X10.64Y14.824
X10.64Y12.284
X10.64Y9.744
X10.64Y7.204
X10.64Y4.664
X13.18Y52.924
X13.18Y50.384
X13.18Y47.844
X13.18Y45.304
X13.18Y42.764
X13.18Y40.224
X13.18Y37.684
X13.18Y35.144
X13.18Y32.604
X13.18Y30.064
X13.18Y27.524
X13.18Y24.984
X13.18Y22.444
X13.18Y19.904
X13.18Y17.364
X13.18Y14.824
X13.18Y12.284
X13.18Y9.744
X13.18Y7.204
X13.18Y4.664
X30.983Y52.93
X30.983Y50.39
X30.983Y47.85
X30.983Y45.31
X30.983Y42.77
X30.983Y40.23
X30.983Y37.69
X30.983Y35.15
X30.983Y32.61
X30.983Y30.07
X30.983Y27.53
X30.983Y24.99
X30.983Y22.45
X30.983Y19.91
X30.983Y17.37
X30.983Y14.83
X30.983Y12.29
X30.983Y9.75
X30.983Y7.21
X30.983Y4.67
X33.523Y52.93
X33.523Y50.39
X33.523Y47.85
X33.523Y45.31
X33.523Y42.77
X33.523Y40.23
X33.523Y37.69
X33.523Y35.15
X33.523Y32.61
X33.523Y30.07
X33.523Y27.53
X33.523Y24.99
X33.523Y22.45
X33.523Y19.91
X33.523Y17.37
X33.523Y14.83
X33.523Y12.29
X33.523Y9.75
X33.523Y7.21
X33.523Y4.67
T4
X13.185Y52.929
X13.185Y50.389
X13.185Y47.849
X13.185Y45.309
X13.185Y42.769
X13.185Y40.229
X13.185Y37.689
X13.185Y35.149
X13.185Y32.609
X13.185Y30.069
X13.185Y27.529
X13.185Y24.989
X13.185Y22.449
X13.185Y19.909
X13.185Y17.369
X13.185Y14.829
X13.185Y12.289
X13.185Y9.749
X13.185Y7.209
X13.185Y4.669
X19.535Y4.899
X22.075Y4.899
X24.615Y4.899
X30.965Y52.929
X30.965Y50.389
X30.965Y47.849
X30.965Y45.309
X30.965Y42.769
X30.965Y40.229
X30.965Y37.689
X30.965Y35.149
X30.965Y32.609
X30.965Y30.069
X30.965Y27.529
X30.965Y24.989
X30.965Y22.449
X30.965Y19.909
X30.965Y17.369
X30.965Y14.829
X30.965Y12.289
X30.965Y9.749
X30.965Y7.209
X30.965Y4.669
T5
X19.65Y49.769
X24.5Y49.769
T6
X19.35Y52.799
X24.8Y52.799
T7
X2.5Y52.5
X2.5Y2.5
X37.5Y52.5
X37.5Y2.5
T0
M30
